<?xml version="1.0" encoding="UTF-8" standalone="no"?>
<!-- Generated by Microsoft Visio 11.0, SVG Export, v1.0 raisinpicker_icon.svg Page-1 -->

<svg
   xmlns:v="http://schemas.microsoft.com/visio/2003/SVGExtensions/"
   xmlns:dc="http://purl.org/dc/elements/1.1/"
   xmlns:cc="http://creativecommons.org/ns#"
   xmlns:rdf="http://www.w3.org/1999/02/22-rdf-syntax-ns#"
   xmlns:svg="http://www.w3.org/2000/svg"
   xmlns="http://www.w3.org/2000/svg"
   xmlns:sodipodi="http://sodipodi.sourceforge.net/DTD/sodipodi-0.dtd"
   xmlns:inkscape="http://www.inkscape.org/namespaces/inkscape"
   width="5.35417in"
   height="5.35417in"
   viewBox="0 0 385.5 385.5"
   xml:space="preserve"
   color-interpolation-filters="sRGB"
   class="st2"
   id="svg2"
   version="1.1"
   inkscape:version="0.91 r13725"
   sodipodi:docname="icon-lightbulb.svg"
   inkscape:export-filename="D:\Google Drive\Projects\13 Raisin Picker\Design\Logo\Dark.png"
   inkscape:export-xdpi="186.77"
   inkscape:export-ydpi="186.77"><metadata
     id="metadata19"><rdf:RDF><cc:Work
         rdf:about=""><dc:format>image/svg+xml</dc:format><dc:type
           rdf:resource="http://purl.org/dc/dcmitype/StillImage" /><dc:title /></cc:Work></rdf:RDF></metadata><defs
     id="defs17"><inkscape:perspective
       sodipodi:type="inkscape:persp3d"
       inkscape:vp_x="228.68657 : 281.77453 : 1"
       inkscape:vp_y="0 : 1000 : 0"
       inkscape:vp_z="710.56184 : 281.77453 : 1"
       inkscape:persp3d-origin="469.62421 : 201.46198 : 1"
       id="perspective3024" /><path
       id="a"
       d="M0 0h24v24H0V0z" /></defs><sodipodi:namedview
     pagecolor="#ffffff"
     bordercolor="#666666"
     borderopacity="1"
     objecttolerance="10"
     gridtolerance="10"
     guidetolerance="10"
     inkscape:pageopacity="0"
     inkscape:pageshadow="2"
     inkscape:window-width="1920"
     inkscape:window-height="1017"
     id="namedview15"
     showgrid="false"
     inkscape:zoom="0.69261572"
     inkscape:cx="42.962485"
     inkscape:cy="370.01578"
     inkscape:window-x="-8"
     inkscape:window-y="-8"
     inkscape:window-maximized="1"
     inkscape:current-layer="layer2" /><v:documentProperties
     v:langID="1033"
     v:metric="true"
     v:viewMarkup="false" /><style
     type="text/css"
     id="style4">
	
		.st1 {fill:#7f7f7f;stroke:none;stroke-linecap:butt;stroke-width:0.75}
		.st2 {fill:none;fill-rule:evenodd;font-size:12px;overflow:visible;stroke-linecap:square;stroke-miterlimit:3}
	
	</style><path
     style="fill:#ffffff;fill-opacity:1"
     d="M 211.33089,389.52327 C 135.79827,374.58076 83.839599,308.46705 88.42878,233.13906 93.248835,154.02143 158.74737,92.291366 237.87487,92.291366 c 43.69017,0 87.21663,20.259004 114.67598,53.374904 51.77938,62.44583 45.74299,151.59209 -14.01091,206.91505 -16.05549,14.86491 -42.72426,29.38618 -63.91187,34.8003 -17.71737,4.52736 -46.342,5.49587 -63.29718,2.14165 l 0,0 z m 52.2069,-51.38441 c 45.31817,-13.31117 73.68228,-50.80316 73.58021,-97.25903 -0.11943,-54.34309 -44.62269,-98.52381 -99.24313,-98.52381 -76.02292,0 -123.94702,82.67859 -86.48351,149.2012 21.3823,37.9678 71.12725,58.6301 112.14643,46.58164 z"
     id="path2998"
     inkscape:connector-curvature="0"
     transform="scale(0.79999954,0.79999954)" /><g
     inkscape:groupmode="layer"
     id="layer1"
     inkscape:label="bg"
     style="display:inline"><rect
       style="fill:#37474f;fill-opacity:1"
       id="rect3084"
       width="486.56128"
       height="485.11746"
       x="0"
       y="-1.7983989"
       transform="scale(0.79999954,0.79999954)" /></g><g
     inkscape:groupmode="layer"
     id="layer2"
     inkscape:label="Layer"
     style="display:inline"><g
       style="fill:#eceff1;fill-opacity:1"
       id="g4302"
       transform="matrix(19.476371,0,0,19.476371,-40.504551,3.4373365)"><path
         id="path4295"
         d="M 12,2 C 8.14,2 5,5.14 5,9 c 0,2.38 1.19,4.47 3,5.74 L 8,17 c 0,0.55 0.45,1 1,1 l 6,0 c 0.55,0 1,-0.45 1,-1 l 0,-2.26 C 17.81,13.47 19,11.38 19,9 19,5.14 15.86,2 12,2 Z M 14.85,13.1 14,13.7 14,16 10,16 10,13.7 9.15,13.1 C 7.8,12.16 7,10.63 7,9 7,6.24 9.24,4 12,4 c 2.76,0 5,2.24 5,5 0,1.63 -0.8,3.16 -2.15,4.1 z"
         clip-path="url(#b)"
         inkscape:connector-curvature="0"
         style="fill:#eceff1;fill-opacity:1"
         sodipodi:nodetypes="sscsssscssccccccsssc" /></g><circle
       style="opacity:1;fill:#eceff1;fill-opacity:1;stroke:none;stroke-width:20;stroke-miterlimit:3;stroke-dasharray:none;stroke-opacity:1"
       id="path4341"
       cx="192.25116"
       cy="178.46425"
       r="50.644867" /></g></svg>