<?xml version="1.0" standalone="no"?>
<!DOCTYPE svg PUBLIC "-//W3C//DTD SVG 20010904//EN"
 "http://www.w3.org/TR/2001/REC-SVG-20010904/DTD/svg10.dtd">
<svg version="1.0" xmlns="http://www.w3.org/2000/svg"
 width="1000.000000pt" height="1000.000000pt" viewBox="0 0 1000.000000 1000.000000"
 preserveAspectRatio="xMidYMid meet">
<metadata>
Created by potrace 1.11, written by Peter Selinger 2001-2013
</metadata>
<g transform="translate(0.000000,1000.000000) scale(0.100000,-0.100000)"
fill="#000000" stroke="none">
<path d="M0 5000 l0 -5000 5000 0 5000 0 0 5000 0 5000 -5000 0 -5000 0 0
-5000z m5465 3871 c173 -23 305 -49 460 -91 853 -227 1613 -789 2085 -1542 91
-146 247 -459 307 -618 201 -532 271 -1094 207 -1660 -108 -960 -608 -1827
-1396 -2427 l-98 -74 0 -602 c0 -652 -1 -660 -55 -767 -36 -71 -134 -171 -203
-208 -123 -66 -16 -62 -1760 -62 -1749 0 -1645 -4 -1762 63 -76 43 -162 131
-199 205 -60 119 -61 128 -61 783 l0 596 -42 29 c-154 107 -399 324 -544 485
-500 553 -795 1185 -901 1929 -25 181 -25 733 0 905 63 422 164 755 332 1100
495 1012 1450 1733 2560 1930 112 20 190 30 390 49 109 11 537 -4 680 -23z"/>
<path d="M4825 7884 c-16 -2 -73 -9 -125 -15 -424 -48 -899 -245 -1240 -513
-448 -353 -766 -843 -900 -1388 -57 -232 -65 -309 -65 -608 0 -242 3 -290 23
-403 114 -635 433 -1176 924 -1567 37 -29 176 -130 310 -224 l243 -172 3 -582
2 -582 1010 0 1010 0 0 579 0 578 230 163 c332 233 399 287 550 439 211 212
355 416 486 686 458 946 280 2067 -449 2831 -393 412 -897 673 -1467 759 -99
15 -479 29 -545 19z m363 -895 c394 -42 726 -202 1008 -483 280 -281 439 -608
484 -1001 58 -508 -133 -1029 -507 -1386 -256 -244 -562 -394 -918 -450 -119
-19 -389 -16 -510 5 -1020 181 -1636 1200 -1315 2176 137 419 441 771 836 969
202 100 352 143 619 174 66 8 211 6 303 -4z"/>
</g>
</svg>
